<mxfile host="app.diagrams.net" modified="2023-10-15T20:38:07.122Z" agent="Mozilla/5.0 (Macintosh; Intel Mac OS X 10_15_7) AppleWebKit/537.36 (KHTML, like Gecko) Chrome/118.0.0.0 Safari/537.36 Edg/118.0.2088.46" version="22.0.4" etag="EwS9kf6uO_rBjIs0KlXL" type="github">
  <diagram name="Page-1" id="PrLraV4nolaUie2tSP1I">
    <mxGraphModel>
      <root>
        <mxCell id="0" />
        <mxCell id="1" parent="0" />
      </root>
    </mxGraphModel>
  </diagram>
</mxfile>
